<svg width="800" height="280" xmlns="http://www.w3.org/2000/svg">
  <!-- Timeline -->
  <defs>
    <marker id="timeline-arrow4" markerWidth="10" markerHeight="10" refX="9" refY="3" orient="auto" markerUnits="strokeWidth">
      <path d="M 0 0 L 9 3 L 0 6 z" fill="#666"/>
    </marker>
  </defs>
  <line x1="100" y1="180" x2="750" y2="180" stroke="#666" stroke-width="2" marker-end="url(#timeline-arrow4)"/>

  <!-- Connection lines on main timeline -->
  <line x1="230" y1="180" x2="420" y2="180" stroke="#666" stroke-width="2"/>
  <line x1="480" y1="180" x2="570" y2="180" stroke="#666" stroke-width="2"/>

  <!-- First commit -->
  <circle cx="200" cy="180" r="30" fill="#4ECDC4" stroke="#2C7A7B" stroke-width="2"/>
  <text x="200" y="188" text-anchor="middle" font-size="18" font-weight="bold" fill="white">C1</text>

  <!-- Second commit -->
  <circle cx="450" cy="180" r="30" fill="#4ECDC4" stroke="#2C7A7B" stroke-width="2"/>
  <text x="450" y="188" text-anchor="middle" font-size="18" font-weight="bold" fill="white">C2</text>

  <!-- Third commit on main timeline -->
  <circle cx="600" cy="180" r="30" fill="#4ECDC4" stroke="#2C7A7B" stroke-width="2"/>
  <text x="600" y="188" text-anchor="middle" font-size="18" font-weight="bold" fill="white">C3</text>

  <!-- Branch arc: goes up from C2, across to C3 position, then back down to C3 -->
  <path d="M 480 170 L 490 170 Q 500 170 500 150 L 500 100 Q 500 80 520 80 L 580 80 Q 590 80 590 100 L 590 150 Q 590 170 595 170"
        stroke="#9B59B6" stroke-width="2" fill="none" stroke-dasharray="5,3"/>

  <!-- add-median label on the branch arc -->
  <rect x="490" y="60" width="130" height="35" rx="8" fill="#E8DAEF" stroke="#9B59B6" stroke-width="2"/>
  <text x="555" y="82" text-anchor="middle" font-size="16" font-weight="bold">add-median</text>

  <!-- main branch pointer at C3 -->
  <rect x="560" y="215" width="80" height="35" rx="8" fill="#FFE66D" stroke="#FF6B35" stroke-width="2"/>
  <text x="600" y="237" text-anchor="middle" font-size="16" font-weight="bold">main</text>
  <line x1="600" y1="215" x2="600" y2="210" stroke="#FF6B35" stroke-width="2"/>

  <!-- Fast-forward merge annotation -->
  <text x="525" y="260" text-anchor="middle" font-size="14" font-style="italic" fill="#666">(fast-forward merge)</text>
</svg>
