<svg width="800" height="300" xmlns="http://www.w3.org/2000/svg">
  <!-- Timeline -->
  <defs>
    <marker id="timeline-arrow2" markerWidth="10" markerHeight="10" refX="9" refY="3" orient="auto" markerUnits="strokeWidth">
      <path d="M 0 0 L 9 3 L 0 6 z" fill="#666"/>
    </marker>
    <marker id="head-arrow" markerWidth="10" markerHeight="10" refX="0" refY="3" orient="auto" markerUnits="strokeWidth">
      <path d="M 9 0 L 0 3 L 9 6 z" fill="#E74C3C"/>
    </marker>
  </defs>
  <line x1="100" y1="150" x2="650" y2="150" stroke="#666" stroke-width="2" marker-end="url(#timeline-arrow2)"/>

  <!-- Connection line between commits -->
  <line x1="230" y1="150" x2="420" y2="150" stroke="#666" stroke-width="2"/>

  <!-- First commit -->
  <circle cx="200" cy="150" r="30" fill="#4ECDC4" stroke="#2C7A7B" stroke-width="2"/>
  <text x="200" y="158" text-anchor="middle" font-size="18" font-weight="bold" fill="white">C1</text>

  <!-- Second commit -->
  <circle cx="450" cy="150" r="30" fill="#4ECDC4" stroke="#2C7A7B" stroke-width="2"/>
  <text x="450" y="158" text-anchor="middle" font-size="18" font-weight="bold" fill="white">C2</text>

  <!-- main branch pointer -->
  <rect x="410" y="50" width="80" height="35" rx="8" fill="#FFE66D" stroke="#FF6B35" stroke-width="2"/>
  <text x="450" y="72" text-anchor="middle" font-size="16" font-weight="bold">main</text>
  <line x1="450" y1="85" x2="450" y2="120" stroke="#FF6B35" stroke-width="2"/>

  <!-- add-median branch pointer -->
  <rect x="385" y="215" width="130" height="35" rx="8" fill="#E8DAEF" stroke="#9B59B6" stroke-width="2"/>
  <text x="450" y="237" text-anchor="middle" font-size="16" font-weight="bold">add-median</text>
  <line x1="450" y1="215" x2="450" y2="180" stroke="#9B59B6" stroke-width="2"/>

  <!-- HEAD pointer -->
  <rect x="560" y="215" width="70" height="35" rx="8" fill="#FADBD8" stroke="#E74C3C" stroke-width="3"/>
  <text x="595" y="237" text-anchor="middle" font-size="16" font-weight="bold" fill="#C0392B">HEAD</text>
  <line x1="560" y1="232" x2="515" y2="232" stroke="#E74C3C" stroke-width="2" marker-end="url(#head-arrow)"/>
</svg>
