<svg width="900" height="400" xmlns="http://www.w3.org/2000/svg">
  <!-- Main timeline -->
  <line x1="100" y1="200" x2="750" y2="200" stroke="#666" stroke-width="2"/>

  <!-- Connection lines -->
  <line x1="170" y1="200" x2="270" y2="200" stroke="#666" stroke-width="2"/>

  <!-- C1 commit -->
  <circle cx="150" cy="200" r="25" fill="#4ECDC4" stroke="#2C7A7B" stroke-width="2"/>
  <text x="150" y="207" text-anchor="middle" font-size="16" font-weight="bold" fill="white">C1</text>

  <!-- C2 commit -->
  <circle cx="290" cy="200" r="25" fill="#4ECDC4" stroke="#2C7A7B" stroke-width="2"/>
  <text x="290" y="207" text-anchor="middle" font-size="16" font-weight="bold" fill="white">C2</text>

  <!-- Branch 1: use-numpy-mean (upper) -->
  <path d="M 315 200 L 350 200 Q 370 200 370 180 L 370 90 Q 370 70 390 70 L 425 70"
        stroke="#9B59B6" stroke-width="2" fill="none"/>
  <circle cx="450" cy="70" r="25" fill="#9B59B6" stroke="#7D3C98" stroke-width="2"/>
  <text x="450" y="77" text-anchor="middle" font-size="16" font-weight="bold" fill="white">C4</text>
  <text x="450" y="35" text-anchor="middle" font-size="12" font-style="italic">"Use NumPy"</text>

  <!-- Branch 2: add-mean-docstring (lower) -->
  <path d="M 315 200 L 350 200 Q 370 200 370 220 L 370 310 Q 370 330 390 330 L 425 330"
        stroke="#E67E22" stroke-width="2" fill="none"/>
  <circle cx="450" cy="330" r="25" fill="#E67E22" stroke="#CA6F1E" stroke-width="2"/>
  <text x="450" y="337" text-anchor="middle" font-size="16" font-weight="bold" fill="white">C5</text>
  <text x="450" y="370" text-anchor="middle" font-size="12" font-style="italic">"Add docstring"</text>

  <!-- Merge C4 into main (fast-forward) -->
  <path d="M 475 70 L 540 70 Q 560 70 560 90 L 560 180 Q 560 200 575 200"
        stroke="#666" stroke-width="2" fill="none"/>
  <circle cx="600" cy="200" r="25" fill="#4ECDC4" stroke="#2C7A7B" stroke-width="2"/>
  <text x="600" y="207" text-anchor="middle" font-size="16" font-weight="bold" fill="white">C4</text>

  <!-- Merge C5 into main (creates merge commit) -->
  <path d="M 475 330 L 640 330 Q 660 330 660 310 L 660 220 Q 660 200 680 200 L 685 200"
        stroke="#E67E22" stroke-width="2" fill="none"/>
  <line x1="620" y1="200" x2="690" y2="200" stroke="#666" stroke-width="2"/>

  <!-- Merge commit -->
  <circle cx="710" cy="200" r="25" fill="#E74C3C" stroke="#C0392B" stroke-width="2"/>
  <text x="710" y="207" text-anchor="middle" font-size="16" font-weight="bold" fill="white">M</text>
  <text x="710" y="150" text-anchor="middle" font-size="11" font-style="italic">"Merge with</text>
  <text x="710" y="165" text-anchor="middle" font-size="11" font-style="italic">conflict resolution"</text>

  <!-- main branch pointer -->
  <rect x="670" y="235" width="80" height="35" rx="8" fill="#FFE66D" stroke="#FF6B35" stroke-width="2"/>
  <text x="710" y="257" text-anchor="middle" font-size="16" font-weight="bold">main</text>
  <line x1="710" y1="235" x2="710" y2="225" stroke="#FF6B35" stroke-width="2"/>

  <!-- Branch labels -->
  <rect x="490" y="45" width="145" height="30" rx="8" fill="#E8DAEF" stroke="#9B59B6" stroke-width="2"/>
  <text x="562" y="65" text-anchor="middle" font-size="13" font-weight="bold" fill="#7D3C98">use-numpy-mean</text>

  <rect x="480" y="340" width="165" height="30" rx="8" fill="#FAE5D3" stroke="#E67E22" stroke-width="2"/>
  <text x="562" y="360" text-anchor="middle" font-size="13" font-weight="bold" fill="#CA6F1E">add-mean-docstring</text>
</svg>
