<svg width="800" height="300" xmlns="http://www.w3.org/2000/svg">
  <!-- Timeline -->
  <defs>
    <marker id="timeline-arrow4" markerWidth="10" markerHeight="10" refX="9" refY="3" orient="auto" markerUnits="strokeWidth">
      <path d="M 0 0 L 9 3 L 0 6 z" fill="#666"/>
    </marker>
    <marker id="merge-arrow" markerWidth="10" markerHeight="10" refX="9" refY="3" orient="auto" markerUnits="strokeWidth">
      <path d="M 0 0 L 9 3 L 0 6 z" fill="#6B7FD7"/>
    </marker>
  </defs>
  <line x1="100" y1="150" x2="650" y2="150" stroke="#666" stroke-width="2" marker-end="url(#timeline-arrow4)"/>

  <!-- Connection line between C1 and C2 -->
  <line x1="230" y1="150" x2="420" y2="150" stroke="#666" stroke-width="2"/>

  <!-- First commit -->
  <circle cx="200" cy="150" r="30" fill="#4ECDC4" stroke="#2C7A7B" stroke-width="2"/>
  <text x="200" y="158" text-anchor="middle" font-size="18" font-weight="bold" fill="white">C1</text>

  <!-- Second commit -->
  <circle cx="450" cy="150" r="30" fill="#4ECDC4" stroke="#2C7A7B" stroke-width="2"/>
  <text x="450" y="158" text-anchor="middle" font-size="18" font-weight="bold" fill="white">C2</text>

  <!-- Branch line from C2 to C3 with arc (gray, showing the branch path) -->
  <path d="M 480 150 L 520 150 Q 540 150 540 130 L 540 70 Q 540 50 560 50 L 570 50"
        stroke="#999" stroke-width="2" fill="none" stroke-dasharray="4,3"/>

  <!-- Third commit (merged) -->
  <circle cx="600" cy="50" r="30" fill="#4ECDC4" stroke="#2C7A7B" stroke-width="2"/>
  <text x="600" y="58" text-anchor="middle" font-size="18" font-weight="bold" fill="white">C3</text>

  <!-- main branch pointer (moved to C3) -->
  <rect x="560" y="80" width="80" height="35" rx="8" fill="#FFE66D" stroke="#FF6B35" stroke-width="2"/>
  <text x="600" y="102" text-anchor="middle" font-size="16" font-weight="bold">main</text>
  <line x1="600" y1="80" x2="600" y2="80" stroke="#FF6B35" stroke-width="2"/>

  <!-- Fast-forward merge arrow from main at C2 to C3 -->
  <path d="M 450 180 Q 480 230 540 230 Q 580 230 580 190 L 580 80 Q 580 65 590 65"
        stroke="#6B7FD7" stroke-width="3" fill="none" marker-end="url(#merge-arrow)"/>
  <text x="490" y="250" text-anchor="middle" font-size="16" font-weight="bold" fill="#6B7FD7">fast-forward</text>
</svg>
