<svg width="800" height="350" xmlns="http://www.w3.org/2000/svg">
  <!-- Timeline -->
  <defs>
    <marker id="timeline-arrow3" markerWidth="10" markerHeight="10" refX="9" refY="3" orient="auto" markerUnits="strokeWidth">
      <path d="M 0 0 L 9 3 L 0 6 z" fill="#666"/>
    </marker>
  </defs>
  <line x1="100" y1="180" x2="650" y2="180" stroke="#666" stroke-width="2" marker-end="url(#timeline-arrow3)"/>

  <!-- Connection line between C1 and C2 -->
  <line x1="230" y1="180" x2="420" y2="180" stroke="#666" stroke-width="2"/>

  <!-- First commit -->
  <circle cx="200" cy="180" r="30" fill="#4ECDC4" stroke="#2C7A7B" stroke-width="2"/>
  <text x="200" y="188" text-anchor="middle" font-size="18" font-weight="bold" fill="white">C1</text>

  <!-- Second commit -->
  <circle cx="450" cy="180" r="30" fill="#4ECDC4" stroke="#2C7A7B" stroke-width="2"/>
  <text x="450" y="188" text-anchor="middle" font-size="18" font-weight="bold" fill="white">C2</text>

  <!-- Branch line from C2 to C3 with arc -->
  <path d="M 480 180 L 520 180 Q 540 180 540 160 L 540 90 Q 540 70 560 70 L 570 70"
        stroke="#9B59B6" stroke-width="2" fill="none"/>

  <!-- Third commit (on add-median branch) -->
  <circle cx="600" cy="70" r="30" fill="#9B59B6" stroke="#7D3C98" stroke-width="2"/>
  <text x="600" y="78" text-anchor="middle" font-size="18" font-weight="bold" fill="white">C3</text>
  <text x="600" y="25" text-anchor="middle" font-size="13" font-style="italic">"Add median</text>
  <text x="600" y="43" text-anchor="middle" font-size="13" font-style="italic">calculation"</text>

  <!-- main branch pointer -->
  <rect x="410" y="260" width="80" height="35" rx="8" fill="#FFE66D" stroke="#FF6B35" stroke-width="2"/>
  <text x="450" y="282" text-anchor="middle" font-size="16" font-weight="bold">main</text>
  <line x1="450" y1="260" x2="450" y2="210" stroke="#FF6B35" stroke-width="2"/>

  <!-- add-median branch pointer -->
  <rect x="640" y="105" width="130" height="35" rx="8" fill="#E8DAEF" stroke="#9B59B6" stroke-width="2"/>
  <text x="705" y="127" text-anchor="middle" font-size="16" font-weight="bold">add-median</text>
  <path d="M 640 122 L 635 122 L 635 70 L 630 70" stroke="#9B59B6" stroke-width="2" fill="none"/>
</svg>
