<svg width="800" height="350" xmlns="http://www.w3.org/2000/svg">
  <!-- Timeline -->
  <defs>
    <marker id="timeline-arrow4" markerWidth="10" markerHeight="10" refX="9" refY="3" orient="auto" markerUnits="strokeWidth">
      <path d="M 0 0 L 9 3 L 0 6 z" fill="#666"/>
    </marker>
    <marker id="merge-arrow" markerWidth="10" markerHeight="10" refX="9" refY="3" orient="auto" markerUnits="strokeWidth">
      <path d="M 0 0 L 9 3 L 0 6 z" fill="#27AE60"/>
    </marker>
  </defs>
  <line x1="100" y1="180" x2="650" y2="180" stroke="#666" stroke-width="2" marker-end="url(#timeline-arrow4)"/>

  <!-- Connection line between C1 and C2 -->
  <line x1="230" y1="180" x2="420" y2="180" stroke="#666" stroke-width="2"/>

  <!-- First commit -->
  <circle cx="200" cy="180" r="30" fill="#4ECDC4" stroke="#2C7A7B" stroke-width="2"/>
  <text x="200" y="188" text-anchor="middle" font-size="18" font-weight="bold" fill="white">C1</text>

  <!-- Second commit -->
  <circle cx="450" cy="180" r="30" fill="#4ECDC4" stroke="#2C7A7B" stroke-width="2"/>
  <text x="450" y="188" text-anchor="middle" font-size="18" font-weight="bold" fill="white">C2</text>

  <!-- Branch line from C2 to C3 with arc -->
  <path d="M 480 180 L 520 180 Q 540 180 540 160 L 540 90 Q 540 70 560 70 L 570 70"
        stroke="#666" stroke-width="2" fill="none"/>

  <!-- Third commit (merged) -->
  <circle cx="600" cy="70" r="30" fill="#4ECDC4" stroke="#2C7A7B" stroke-width="2"/>
  <text x="600" y="78" text-anchor="middle" font-size="18" font-weight="bold" fill="white">C3</text>

  <!-- main branch pointer (moved to C3) -->
  <rect x="560" y="10" width="80" height="35" rx="8" fill="#FFE66D" stroke="#FF6B35" stroke-width="2"/>
  <text x="600" y="32" text-anchor="middle" font-size="16" font-weight="bold">main</text>
  <line x1="600" y1="45" x2="600" y2="40" stroke="#FF6B35" stroke-width="2"/>

  <!-- add-median branch pointer -->
  <rect x="665" y="60" width="130" height="35" rx="8" fill="#E8DAEF" stroke="#9B59B6" stroke-width="2"/>
  <text x="730" y="82" text-anchor="middle" font-size="16" font-weight="bold">add-median</text>
  <line x1="665" y1="77" x2="630" y2="77" stroke="#9B59B6" stroke-width="2"/>

  <!-- Curved merge arrow -->
  <path d="M 450 210 Q 480 280 540 280 Q 580 280 580 240 L 580 110 Q 580 95 590 95"
        stroke="#27AE60" stroke-width="3" fill="none" marker-end="url(#merge-arrow)"/>
  <text x="490" y="300" text-anchor="middle" font-size="16" font-weight="bold" fill="#27AE60">merge</text>
</svg>
